<?xml version="1.0" standalone="no"?>
<!DOCTYPE svg PUBLIC "-//W3C//DTD SVG 20010904//EN"
 "http://www.w3.org/TR/2001/REC-SVG-20010904/DTD/svg10.dtd">
<svg version="1.0" xmlns="http://www.w3.org/2000/svg"
 width="512.000000pt" height="482.000000pt" viewBox="0 0 512.000000 482.000000"
 preserveAspectRatio="xMidYMid meet">

<g transform="translate(0.000000,482.000000) scale(0.100000,-0.100000)"
fill="#000000" stroke="none">
<path d="M0 2410 l0 -2410 393 2 392 3 31 47 c42 62 71 150 90 272 10 62 25
115 40 142 38 67 64 163 63 229 l0 60 -28 -100 c-15 -55 -38 -120 -51 -145
-51 -100 -140 -194 -247 -263 -73 -46 -79 -32 -16 37 126 138 168 279 158 526
-6 129 -41 395 -64 490 -16 63 -21 100 -13 100 4 0 38 -25 75 -55 61 -49 107
-69 107 -47 0 8 -28 66 -45 92 -47 74 -66 242 -45 407 10 82 55 247 89 328 25
59 43 145 58 270 14 119 14 165 5 311 -7 94 -21 215 -32 268 -11 54 -20 109
-20 121 0 40 186 286 333 442 149 157 364 302 572 386 78 32 262 91 345 112
36 9 76 20 90 25 94 36 553 86 690 76 41 -3 138 -10 215 -16 210 -15 368 -38
490 -71 61 -16 119 -34 130 -39 11 -5 47 -19 80 -32 138 -55 357 -208 462
-325 115 -128 206 -258 270 -387 20 -39 46 -92 59 -118 13 -27 24 -51 24 -55
0 -5 6 -20 14 -35 8 -15 28 -65 46 -112 138 -377 133 -951 -15 -1616 -49 -220
-75 -576 -54 -720 6 -36 10 -78 9 -94 0 -15 4 -34 10 -41 7 -9 5 -16 -7 -26
-12 -10 -15 -11 -9 -1 4 7 3 18 -2 25 -6 7 -20 59 -33 117 -19 89 -23 133 -22
285 0 135 4 196 17 242 9 34 19 84 22 110 2 26 10 91 17 143 7 53 9 137 6 190
-3 52 -6 86 -7 75 -27 -268 -71 -544 -92 -584 -5 -9 -17 -43 -26 -76 -44 -162
-151 -395 -262 -570 -41 -66 -79 -124 -84 -130 -5 -5 -31 -39 -59 -75 -28 -36
-82 -95 -119 -132 -65 -64 -67 -68 -42 -68 20 0 42 16 83 58 61 63 157 180
185 228 11 17 40 62 65 100 58 88 128 216 145 262 23 68 31 46 32 -88 2 -136
25 -286 58 -371 15 -39 65 -119 107 -171 8 -10 24 -18 37 -18 20 0 21 2 9 18
-13 16 -13 16 7 -1 18 -15 44 -17 202 -17 l182 0 0 2410 0 2410 -2560 0 -2560
0 0 -2410z m2933 1763 c-24 -2 -62 -2 -85 0 -24 2 -5 4 42 4 47 0 66 -2 43 -4z
m-225 -10 c-10 -2 -28 -2 -40 0 -13 2 -5 4 17 4 22 1 32 -1 23 -4z m561 -9 c7
-7 -91 -2 -149 6 -40 6 -27 7 45 3 55 -3 102 -7 104 -9z m-651 -1 c-10 -2 -26
-2 -35 0 -10 3 -2 5 17 5 19 0 27 -2 18 -5z m-81 -9 c-3 -3 -12 -4 -19 -1 -8
3 -5 6 6 6 11 1 17 -2 13 -5z m816 -1 c-7 -2 -21 -2 -30 0 -10 3 -4 5 12 5 17
0 24 -2 18 -5z m-880 -10 c-7 -2 -19 -2 -25 0 -7 3 -2 5 12 5 14 0 19 -2 13
-5z m970 0 c-7 -2 -19 -2 -25 0 -7 3 -2 5 12 5 14 0 19 -2 13 -5z m74 -9 c-3
-3 -12 -4 -19 -1 -8 3 -5 6 6 6 11 1 17 -2 13 -5z m50 -10 c-3 -3 -12 -4 -19
-1 -8 3 -5 6 6 6 11 1 17 -2 13 -5z m-1250 -10 c-3 -3 -12 -4 -19 -1 -8 3 -5
6 6 6 11 1 17 -2 13 -5z m1300 0 c-3 -3 -12 -4 -19 -1 -8 3 -5 6 6 6 11 1 17
-2 13 -5z m-1340 -10 c-3 -3 -12 -4 -19 -1 -8 3 -5 6 6 6 11 1 17 -2 13 -5z
m1386 -1 c-7 -2 -19 -2 -25 0 -7 3 -2 5 12 5 14 0 19 -2 13 -5z m-1496 -29
c-3 -3 -12 -4 -19 -1 -8 3 -5 6 6 6 11 1 17 -2 13 -5z m2193 -4 c8 -5 11 -10
5 -10 -5 0 -17 5 -25 10 -8 5 -10 10 -5 10 6 0 17 -5 25 -10z m-33 -32 c30
-13 125 -68 133 -78 3 -3 24 -18 48 -34 90 -61 272 -227 272 -247 0 -5 -10 -7
-23 -4 -13 4 -45 -1 -71 -10 -27 -9 -58 -18 -70 -21 -11 -2 -30 -8 -41 -13
-11 -5 -40 -16 -65 -23 l-45 -14 -101 100 c-55 56 -108 107 -118 115 -15 11
-17 23 -11 75 11 108 17 136 32 151 18 18 24 18 60 3z m-110 -30 c-3 -8 -6 -5
-6 6 -1 11 2 17 5 13 3 -3 4 -12 1 -19z m-252 -16 c-3 -3 -11 0 -18 7 -9 10
-8 11 6 5 10 -3 15 -9 12 -12z m242 -59 c-3 -10 -5 -4 -5 12 0 17 2 24 5 18 2
-7 2 -21 0 -30z m-2447 3 c0 -2 -7 -7 -16 -10 -8 -3 -12 -2 -9 4 6 10 25 14
25 6z m2821 -13 c13 -16 12 -17 -3 -4 -17 13 -22 21 -14 21 2 0 10 -8 17 -17z
m-3334 1 c-3 -3 -12 -4 -19 -1 -8 3 -5 6 6 6 11 1 17 -2 13 -5z m43 -48 c0
-12 -5 -7 -19 24 -11 24 -11 24 3 6 9 -11 16 -24 16 -30z m2908 -1 c-1 -19 -3
-35 -3 -35 -1 0 -10 9 -20 20 -17 18 -17 20 -2 14 13 -4 17 -1 17 15 0 12 2
21 5 21 3 0 5 -16 3 -35z m-2518 21 c0 -2 -7 -7 -16 -10 -8 -3 -12 -2 -9 4 6
10 25 14 25 6z m2951 -13 c13 -16 12 -17 -3 -4 -17 13 -22 21 -14 21 2 0 10
-8 17 -17z m-3395 -1 c18 -12 29 -62 40 -194 l7 -78 -66 -69 c-36 -38 -75 -83
-87 -98 l-21 -29 -77 24 c-42 13 -86 27 -97 32 -41 17 -170 54 -182 52 -28 -6
-10 22 50 80 34 33 78 72 97 87 19 14 42 34 51 43 9 10 19 18 23 18 8 0 31 18
54 43 9 9 20 17 23 17 4 0 38 18 76 40 68 40 89 46 109 32z m399 -12 c-3 -5
-12 -10 -18 -10 -7 0 -6 4 3 10 19 12 23 12 15 0z m-560 -10 c-3 -5 -12 -10
-18 -10 -7 0 -6 4 3 10 19 12 23 12 15 0z m3615 -25 c13 -14 21 -25 18 -25 -2
0 -15 11 -28 25 -13 14 -21 25 -18 25 2 0 15 -11 28 -25z m-3650 1 c0 -2 -7
-7 -16 -10 -8 -3 -12 -2 -9 4 6 10 25 14 25 6z m-40 -20 c0 -2 -8 -10 -17 -17
-16 -13 -17 -12 -4 4 13 16 21 21 21 13z m307 -48 c-3 -7 -5 -2 -5 12 0 14 2
19 5 13 2 -7 2 -19 0 -25z m133 -22 c0 -2 -8 -10 -17 -17 -16 -13 -17 -12 -4
4 13 16 21 21 21 13z m-577 -13 c-7 -2 -19 -2 -25 0 -7 3 -2 5 12 5 14 0 19
-2 13 -5z m-66 -9 c-3 -3 -12 -4 -19 -1 -8 3 -5 6 6 6 11 1 17 -2 13 -5z m525
-38 c2 -19 0 -32 -4 -30 -8 5 -12 64 -4 64 2 0 6 -15 8 -34z m78 31 c0 -2 -10
-12 -22 -23 l-23 -19 19 23 c18 21 26 27 26 19z m-723 -23 c-3 -3 -12 -4 -19
-1 -8 3 -5 6 6 6 11 1 17 -2 13 -5z m115 -51 c-102 -88 -122 -149 -122 -368 0
-130 10 -189 34 -213 21 -21 87 -17 144 8 25 11 49 17 53 13 4 -5 19 -78 34
-163 24 -131 28 -183 28 -335 0 -211 -12 -275 -98 -531 -47 -140 -55 -177 -65
-290 -13 -146 -4 -250 29 -327 11 -26 17 -47 12 -47 -10 0 -55 34 -92 70 -14
14 -61 58 -103 98 -42 40 -76 77 -76 82 0 4 -5 10 -11 12 -26 9 -109 233 -134
363 -18 99 -27 411 -14 495 4 25 15 97 24 160 9 63 28 144 41 179 14 35 23 65
22 67 -9 8 -98 -217 -104 -261 -6 -46 -29 -145 -52 -222 -6 -17 -16 -82 -22
-145 -12 -112 -28 -171 -31 -118 -1 14 -3 36 -4 50 -6 57 16 386 35 529 46
338 84 469 179 619 39 61 40 62 11 42 -41 -29 -72 -68 -105 -135 -17 -33 -35
-65 -42 -73 -7 -7 -36 -60 -65 -117 -28 -58 -53 -103 -54 -102 -7 7 18 149 37
212 52 175 195 363 329 434 59 32 152 59 205 60 30 1 30 0 -23 -46z m4038 12
c0 -5 -5 -3 -10 5 -5 8 -10 20 -10 25 0 6 5 3 10 -5 5 -8 10 -19 10 -25z
m-4270 -9 c0 -2 -8 -10 -17 -17 -16 -13 -17 -12 -4 4 13 16 21 21 21 13z
m4158 -23 c-3 -12 -12 -17 -28 -15 -31 3 -38 11 -20 22 25 16 52 12 48 -7z
m69 -25 c-3 -7 -5 -2 -5 12 0 14 2 19 5 13 2 -7 2 -19 0 -25z m-4267 19 c0 -2
-12 -14 -27 -28 l-28 -24 24 28 c23 25 31 32 31 24z m4100 -21 c0 -21 -11 -25
-40 -14 -20 7 -22 11 -10 18 23 14 50 12 50 -4z m115 -16 c19 15 25 1 26 -60
2 -59 -4 -69 -32 -52 -27 17 -49 0 -49 -39 0 -15 -4 -30 -8 -33 -5 -3 -37 13
-71 36 -62 40 -63 41 -56 77 8 46 18 55 43 42 31 -16 52 -13 52 7 0 28 8 31
46 20 25 -6 39 -6 49 2z m-209 -16 c-3 -9 -6 -22 -6 -30 0 -12 -4 -12 -24 3
-28 22 -23 43 11 43 19 0 24 -4 19 -16z m-4066 -7 c0 -2 -15 -16 -32 -33 l-33
-29 29 33 c28 30 36 37 36 29z m390 -97 c0 -7 -33 -19 -51 -20 -8 0 -18 37
-12 44 7 6 63 -14 63 -24z m-460 16 c0 -2 -8 -10 -17 -17 -16 -13 -17 -12 -4
4 13 16 21 21 21 13z m545 -35 c3 -6 -3 -15 -14 -20 -27 -15 -31 -14 -31 9 0
21 33 29 45 11z m3809 -14 c22 -16 17 -50 -8 -55 -26 -5 -38 11 -30 42 7 30
13 31 38 13z m-3932 -11 c42 14 48 13 48 -13 0 -24 2 -25 33 -18 53 11 62 11
63 -5 1 -8 2 -21 3 -27 0 -7 8 -13 17 -13 29 0 8 -25 -55 -63 -68 -41 -91 -42
-91 -4 0 34 -23 51 -50 37 -33 -18 -43 -3 -36 53 9 62 14 71 31 57 9 -7 23 -9
37 -4z m225 -12 c4 -12 -42 -36 -51 -27 -3 4 -6 15 -6 25 0 15 6 19 27 16 14
-2 28 -8 30 -14z m3863 -29 c0 -5 -5 -3 -10 5 -5 8 -10 20 -10 25 0 6 5 3 10
-5 5 -8 10 -19 10 -25z m-250 -5 c16 -11 48 -23 73 -26 40 -6 46 -4 52 15 3
11 11 21 17 21 14 0 4 -116 -11 -134 -12 -14 -26 -12 -101 17 -21 8 -41 37
-78 120 -7 14 20 7 48 -13z m210 0 c0 -5 11 -34 25 -64 37 -81 94 -286 111
-401 19 -123 33 -234 34 -257 1 -41 -20 -13 -40 55 -13 39 -26 77 -30 82 -5 6
-14 30 -21 55 l-14 45 -3 -40 c-1 -22 1 -83 6 -135 9 -93 8 -311 -2 -675 -4
-127 -1 -202 8 -255 20 -115 6 -131 -31 -34 -26 68 -30 88 -25 139 4 33 6 204
7 380 0 288 -2 332 -22 441 -28 155 -95 354 -155 462 -10 18 -18 36 -18 41 0
4 24 6 53 3 67 -5 76 5 90 102 6 41 14 73 19 70 4 -3 8 -9 8 -14z m-3886 -132
c-16 -24 -35 -49 -42 -56 -6 -8 -17 -22 -23 -33 -10 -20 -19 -25 -111 -59 -52
-20 -79 -11 -84 26 -9 60 -11 109 -7 121 8 21 18 15 20 -13 0 -15 7 -30 15
-35 26 -17 94 3 173 51 44 26 82 46 84 44 2 -2 -9 -23 -25 -46z m-170 26 c14
-37 7 -54 -24 -54 -26 0 -30 3 -30 29 0 38 41 58 54 25z m4173 -106 c-3 -8 -6
-5 -6 6 -1 11 2 17 5 13 3 -3 4 -12 1 -19z m20 -70 c-3 -8 -6 -5 -6 6 -1 11 2
17 5 13 3 -3 4 -12 1 -19z m-4780 -20 c-3 -8 -6 -5 -6 6 -1 11 2 17 5 13 3 -3
4 -12 1 -19z m115 -43 c-2 -14 -11 -25 -18 -25 -8 0 -14 -5 -14 -12 0 -6 -2
-9 -5 -7 -2 3 1 20 7 37 15 38 37 43 30 7z m-125 -27 c-3 -7 -5 -2 -5 12 0 14
2 19 5 13 2 -7 2 -19 0 -25z m103 -108 c-7 -44 -15 -79 -17 -76 -2 2 1 40 8
85 7 44 14 79 17 76 3 -2 -1 -41 -8 -85z m-113 18 c-2 -13 -4 -5 -4 17 -1 22
1 32 4 23 2 -10 2 -28 0 -40z m76 12 c-3 -12 -8 -19 -11 -16 -5 6 5 36 12 36
2 0 2 -9 -1 -20z m4764 -22 c-3 -8 -6 -5 -6 6 -1 11 2 17 5 13 3 -3 4 -12 1
-19z m-4780 -30 c-3 -8 -6 -5 -6 6 -1 11 2 17 5 13 3 -3 4 -12 1 -19z m4790
-50 c-2 -13 -4 -5 -4 17 -1 22 1 32 4 23 2 -10 2 -28 0 -40z m-4843 -68 c7 0
18 15 24 33 11 32 12 32 6 2 -7 -37 -18 -49 -38 -42 -12 5 -16 19 -14 54 l2
48 3 -47 c3 -31 9 -48 17 -48z m83 18 c-3 -8 -6 -5 -6 6 -1 11 2 17 5 13 3 -3
4 -12 1 -19z m4770 -35 c-3 -10 -5 -2 -5 17 0 19 2 27 5 18 2 -10 2 -26 0 -35z
m-4780 -45 c-3 -8 -6 -5 -6 6 -1 11 2 17 5 13 3 -3 4 -12 1 -19z m4790 -130
c-2 -24 -4 -7 -4 37 0 44 2 63 4 43 2 -21 2 -57 0 -80z m-4800 40 c-3 -7 -5
-2 -5 12 0 14 2 19 5 13 2 -7 2 -19 0 -25z m4727 -55 c15 -117 5 -363 -14
-363 -5 0 -11 -10 -14 -22 -3 -13 -3 2 -1 32 3 30 5 133 5 228 0 165 11 225
24 125z m-4737 -70 c-2 -16 -4 -3 -4 27 0 30 2 43 4 28 2 -16 2 -40 0 -55z
m4800 -75 c-2 -13 -4 -3 -4 22 0 25 2 35 4 23 2 -13 2 -33 0 -45z m-4800 20
c-3 -8 -6 -5 -6 6 -1 11 2 17 5 13 3 -3 4 -12 1 -19z m-10 -161 c-2 -23 -3 -1
-3 48 0 50 1 68 3 42 2 -26 2 -67 0 -90z m4800 26 c-2 -16 -4 -5 -4 22 0 28 2
40 4 28 2 -13 2 -35 0 -50z m-4679 -73 c0 -31 -3 -44 -6 -30 l-5 25 -8 -25
c-5 -18 -7 -8 -8 36 -1 33 2 64 6 67 13 14 23 -19 21 -73z m4669 -2 c-3 -7 -5
-2 -5 12 0 14 2 19 5 13 2 -7 2 -19 0 -25z m-4780 -100 c-2 -18 -4 -6 -4 27 0
33 2 48 4 33 2 -15 2 -42 0 -60z m4768 62 c-3 -5 -12 -10 -18 -10 -7 0 -6 4 3
10 19 12 23 12 15 0z m-4648 -87 c-3 -10 -5 -2 -5 17 0 19 2 27 5 18 2 -10 2
-26 0 -35z m-110 -60 c-3 -10 -5 -4 -5 12 0 17 2 24 5 18 2 -7 2 -21 0 -30z
m120 -5 c-3 -7 -5 -2 -5 12 0 14 2 19 5 13 2 -7 2 -19 0 -25z m-40 -70 c-2
-13 -4 -3 -4 22 0 25 2 35 4 23 2 -13 2 -33 0 -45z m50 20 c-3 -8 -6 -5 -6 6
-1 11 2 17 5 13 3 -3 4 -12 1 -19z m-40 -90 c-3 -7 -5 -2 -5 12 0 14 2 19 5
13 2 -7 2 -19 0 -25z m82 -48 c0 -9 -4 -8 -9 5 -5 11 -9 27 -9 35 0 9 4 8 9
-5 5 -11 9 -27 9 -35z m4528 -7 c-3 -10 -5 -4 -5 12 0 17 2 24 5 18 2 -7 2
-21 0 -30z m-4650 -25 c-3 -8 -6 -5 -6 6 -1 11 2 17 5 13 3 -3 4 -12 1 -19z
m4660 -60 c-3 -7 -5 -2 -5 12 0 14 2 19 5 13 2 -7 2 -19 0 -25z m-4622 -6 c-3
-3 -11 0 -18 7 -9 10 -8 11 6 5 10 -3 15 -9 12 -12z m4517 0 c3 -11 0 -19 -8
-19 -15 0 -19 19 -7 30 9 10 10 9 15 -11z m28 -52 c6 -11 8 -20 6 -20 -3 0
-10 9 -16 20 -6 11 -8 20 -6 20 3 0 10 -9 16 -20z m-53 -32 c-3 -8 -6 -5 -6 6
-1 11 2 17 5 13 3 -3 4 -12 1 -19z m88 -18 c10 -11 16 -20 13 -20 -3 0 -13 9
-23 20 -10 11 -16 20 -13 20 3 0 13 -9 23 -20z m-4329 -92 l29 -33 -32 29
c-18 17 -33 31 -33 33 0 8 8 1 36 -29z m4221 -10 c-3 -7 -5 -2 -5 12 0 14 2
19 5 13 2 -7 2 -19 0 -25z m225 0 c-9 -9 -15 -9 -24 1 -11 10 -10 11 5 6 10
-5 17 -2 17 6 0 7 3 9 7 6 4 -4 1 -13 -5 -19z m-4353 -81 c-2 -2 -17 12 -33
32 l-30 36 34 -32 c19 -18 32 -34 29 -36z m4118 31 c-3 -7 -5 -2 -5 12 0 14 2
19 5 13 2 -7 2 -19 0 -25z m-10 -60 c-3 -7 -5 -2 -5 12 0 14 2 19 5 13 2 -7 2
-19 0 -25z m-4094 -28 c3 -11 1 -18 -4 -14 -5 3 -9 12 -9 20 0 20 7 17 13 -6z
m4 -52 c-3 -8 -6 -5 -6 6 -1 11 2 17 5 13 3 -3 4 -12 1 -19z m10 -50 c-3 -8
-6 -5 -6 6 -1 11 2 17 5 13 3 -3 4 -12 1 -19z m4043 -18 c-5 -22 -8 -27 -9
-13 -1 21 9 56 14 51 2 -2 0 -19 -5 -38z m-4033 -32 c-3 -8 -6 -5 -6 6 -1 11
2 17 5 13 3 -3 4 -12 1 -19z m4020 -50 c-3 -7 -5 -2 -5 12 0 14 2 19 5 13 2
-7 2 -19 0 -25z m-10 -60 c-3 -7 -5 -2 -5 12 0 14 2 19 5 13 2 -7 2 -19 0 -25z
m-3980 -70 c-3 -7 -5 -2 -5 12 0 14 2 19 5 13 2 -7 2 -19 0 -25z m3970 -25
c-3 -10 -5 -4 -5 12 0 17 2 24 5 18 2 -7 2 -21 0 -30z m-3960 -60 c-3 -10 -5
-2 -5 17 0 19 2 27 5 18 2 -10 2 -26 0 -35z m10 -125 c-2 -18 -4 -4 -4 32 0
36 2 50 4 33 2 -18 2 -48 0 -65z m3940 0 c-2 -18 -4 -6 -4 27 0 33 2 48 4 33
2 -15 2 -42 0 -60z m-131 -24 c1 -40 0 -45 -3 -16 -2 23 -8 42 -14 42 -5 0 -9
9 -9 21 0 12 5 19 13 17 7 -3 12 -26 13 -64z m-39 -286 c-1 -40 -3 -8 -3 72 0
80 2 112 3 73 2 -40 2 -106 0 -145z m50 160 c-2 -13 -4 -5 -4 17 -1 22 1 32 4
23 2 -10 2 -28 0 -40z m120 -80 c-2 -13 -4 -3 -4 22 0 25 2 35 4 23 2 -13 2
-33 0 -45z m-110 20 c-3 -7 -5 -2 -5 12 0 14 2 19 5 13 2 -7 2 -19 0 -25z
m-3837 -58 l-11 -25 6 25 c2 14 5 36 6 50 l2 25 4 -25 c2 -14 -1 -37 -7 -50z
m3847 8 c-3 -8 -6 -5 -6 6 -1 11 2 17 5 13 3 -3 4 -12 1 -19z m110 -50 c-3 -8
-6 -5 -6 6 -1 11 2 17 5 13 3 -3 4 -12 1 -19z m-73 -78 c5 -17 4 -20 -2 -10
-5 8 -13 26 -16 40 -5 17 -4 20 2 10 5 -8 13 -26 16 -40z m95 -5 c0 -5 -4 -3
-9 5 -5 8 -9 22 -9 30 0 16 17 -16 18 -35z m-192 -62 c-3 -10 -5 -4 -5 12 0
17 2 24 5 18 2 -7 2 -21 0 -30z m200 5 c-3 -8 -6 -5 -6 6 -1 11 2 17 5 13 3
-3 4 -12 1 -19z m-4087 -41 c0 -2 -10 -12 -22 -23 l-23 -19 19 23 c18 21 26
27 26 19z m200 -7 c0 -5 -5 -10 -12 -10 -6 0 -23 -10 -37 -22 -21 -19 -20 -17
3 10 30 32 46 40 46 22z m3697 -12 c-3 -8 -6 -5 -6 6 -1 11 2 17 5 13 3 -3 4
-12 1 -19z m-3710 -30 c-3 -8 -6 -5 -6 6 -1 11 2 17 5 13 3 -3 4 -12 1 -19z
m3720 -20 c-3 -8 -6 -5 -6 6 -1 11 2 17 5 13 3 -3 4 -12 1 -19z m-3787 8 c0
-2 -8 -10 -17 -17 -16 -13 -17 -12 -4 4 13 16 21 21 21 13z m-216 -37 c-10
-11 -28 -25 -39 -31 -11 -6 -4 4 15 20 41 36 51 41 24 11z m176 7 c0 -2 -8
-10 -17 -17 -16 -13 -17 -12 -4 4 13 16 21 21 21 13z m70 -103 c-11 -17 -11
-17 -6 0 3 10 6 24 7 30 0 9 2 9 5 0 3 -7 0 -20 -6 -30z m-505 -26 c-11 -9
-15 -19 -10 -28 6 -11 5 -12 -5 -2 -11 10 -11 15 0 28 7 8 17 15 23 15 6 0 3
-6 -8 -13z m4335 -12 c14 -19 14 -19 -2 -6 -10 7 -18 18 -18 24 0 6 1 8 3 6 1
-2 9 -13 17 -24z m41 -52 c13 -16 12 -17 -3 -4 -10 7 -18 15 -18 17 0 8 8 3
21 -13z m-3921 -7 c0 -2 -8 -10 -17 -17 -16 -13 -17 -12 -4 4 13 16 21 21 21
13z"/>
<path d="M4606 3734 c-4 -10 -2 -22 3 -27 15 -15 46 -3 46 18 0 26 -40 33 -49
9z"/>
<path d="M4466 3697 c-25 -19 -10 -49 23 -45 29 3 42 35 19 49 -17 12 -21 11
-42 -4z"/>
<path d="M869 3584 c-10 -12 -9 -18 4 -31 18 -18 47 -11 47 11 0 25 -35 39
-51 20z"/>
<path d="M1023 3543 c-15 -5 -17 -39 -4 -47 16 -10 41 5 41 24 0 19 -17 30
-37 23z"/>
<path d="M4912 2900 c0 -14 2 -19 5 -12 2 6 2 18 0 25 -3 6 -5 1 -5 -13z"/>
<path d="M3416 3450 c3 -58 8 -118 10 -135 27 -186 45 -625 26 -650 -4 -6 -77
-10 -182 -10 -176 0 -265 -7 -395 -28 l-70 -12 -31 65 c-42 89 -80 219 -89
302 -2 18 -8 74 -15 123 -6 50 -13 117 -16 150 -3 33 -8 96 -12 140 l-8 80 -7
-128 c-5 -71 -17 -170 -28 -220 -26 -119 -61 -330 -75 -452 -11 -101 -14 -113
-34 -118 -19 -5 -145 62 -163 87 -8 10 -3 233 8 401 l5 70 -20 -79 c-11 -44
-24 -84 -29 -90 -11 -14 -65 -108 -93 -163 -21 -41 -40 -53 -52 -34 -8 13
-117 73 -122 68 -3 -2 26 -24 63 -48 37 -23 70 -44 72 -45 4 -3 -29 -94 -39
-109 -4 -5 -21 -53 -39 -105 l-31 -96 -98 -49 c-53 -27 -103 -53 -110 -58 -7
-6 -36 -21 -64 -34 l-51 -23 7 177 c3 98 10 210 16 248 11 84 58 323 66 336 3
5 1 9 -4 9 -15 0 -62 -174 -87 -323 -69 -404 -34 -739 126 -1204 81 -235 146
-348 281 -482 45 -45 78 -81 74 -81 -3 0 -35 14 -69 31 -177 89 -329 228 -454
414 -61 90 -96 166 -213 450 l-20 50 6 -50 c24 -189 188 -496 362 -675 31 -32
92 -141 92 -165 0 -39 240 -422 309 -493 22 -23 41 -45 41 -48 0 -23 -158 80
-279 181 -100 84 -236 258 -300 383 -12 24 -24 42 -27 40 -7 -8 17 -68 28 -68
6 0 8 -6 5 -14 -6 -16 34 -103 62 -132 11 -12 17 -25 14 -28 -4 -3 1 -6 10 -6
9 0 17 -6 17 -14 0 -16 41 -65 121 -145 31 -31 59 -65 62 -76 2 -11 11 -42 17
-70 7 -27 16 -54 20 -60 4 -5 13 -32 20 -60 7 -27 16 -54 19 -60 3 -5 7 -18 8
-27 2 -10 11 -37 22 -60 10 -24 24 -59 31 -78 8 -19 19 -42 27 -51 7 -8 13
-20 13 -26 0 -23 36 -73 53 -73 9 0 17 2 17 5 0 3 -20 46 -45 96 -25 50 -45
96 -45 103 0 6 -6 23 -14 37 -10 20 -11 31 -2 46 15 26 46 63 74 88 l23 19 42
-44 c73 -79 168 -136 330 -199 23 -9 27 -15 22 -38 -17 -89 -18 -113 -3 -113
12 0 17 17 22 71 7 65 9 70 29 67 20 -3 22 -8 19 -70 -1 -43 1 -68 8 -68 14 0
26 41 29 102 1 11 7 15 19 13 9 -3 53 -12 97 -21 44 -9 90 -21 102 -26 11 -6
27 -7 35 -3 7 3 0 -5 -15 -19 -28 -26 -29 -46 -1 -46 8 0 14 4 14 10 0 5 7 7
15 4 8 -4 15 -2 15 4 0 5 6 10 13 9 49 -2 59 3 54 26 -5 19 0 25 38 40 24 10
59 21 77 24 18 3 41 9 52 15 11 6 22 6 27 1 10 -10 11 -16 24 -90 4 -26 12
-43 20 -43 14 0 12 37 -4 105 -10 40 -4 55 23 55 19 0 24 -8 34 -51 7 -28 12
-64 12 -80 0 -19 5 -29 15 -29 19 0 19 16 0 105 -8 38 -15 71 -15 71 0 2 104
48 110 49 3 0 28 14 55 31 61 38 120 96 144 141 14 28 27 26 63 -10 l29 -28
-21 -26 c-11 -14 -20 -30 -20 -34 0 -13 38 -11 42 2 7 21 38 -4 71 -61 l35
-58 -36 -63 c-19 -35 -43 -73 -53 -85 -25 -27 -24 -34 6 -34 19 0 31 13 60 61
19 33 35 64 35 70 0 5 6 20 14 32 12 18 83 235 90 274 1 7 36 45 77 85 140
137 236 257 274 343 14 33 22 56 17 50 -5 -5 -37 -46 -73 -90 -69 -86 -211
-249 -244 -278 -11 -10 -38 -35 -60 -56 -37 -35 -85 -67 -85 -57 0 2 17 30 39
62 21 33 64 110 96 173 43 85 65 118 88 130 38 21 167 122 189 149 9 12 38 47
64 79 94 115 144 270 144 440 -1 154 -27 232 -112 333 l-38 46 45 89 c25 50
52 117 60 150 17 67 20 192 5 215 -7 11 -10 1 -10 -35 -1 -42 -11 -102 -34
-196 -8 -30 -50 -124 -70 -156 -22 -35 -53 -47 -37 -15 29 59 34 99 39 302 6
320 -13 510 -72 710 -29 100 -32 96 -10 -15 8 -44 17 -96 19 -115 7 -65 15
-155 20 -220 3 -36 8 -91 11 -122 6 -67 -4 -73 -40 -25 -13 17 -57 57 -96 87
-39 30 -72 64 -75 75 -2 11 -11 74 -20 140 -17 126 -63 281 -129 433 -20 46
-43 113 -51 149 -24 103 -37 111 -29 18 4 -44 8 -87 9 -95 22 -129 27 -192 17
-202 -8 -8 -7 -15 4 -25 10 -11 14 -42 15 -116 0 -56 2 -136 2 -177 2 -70 1
-75 -18 -71 -11 2 -69 8 -130 15 l-109 11 -9 38 c-10 42 -7 47 112 172 36 39
77 84 91 100 24 28 23 28 -20 -6 -25 -18 -78 -67 -119 -106 -41 -40 -78 -73
-82 -73 -4 0 -10 17 -14 38 -10 55 -91 295 -132 391 -20 48 -46 136 -60 205
-13 67 -26 126 -28 131 -3 6 -2 -37 1 -95z m134 -470 c24 -69 49 -152 56 -185
l13 -60 -67 -70 c-159 -168 -152 -158 -132 -170 10 -6 58 39 157 149 24 27 47
46 50 42 4 -4 12 -21 18 -39 l10 -32 125 -8 c69 -5 139 -9 155 -10 l30 -2 3
137 c1 75 -1 169 -6 210 -9 70 -1 133 11 98 58 -161 67 -197 92 -360 8 -58 18
-115 20 -126 3 -12 31 -41 62 -64 67 -49 111 -96 155 -163 l31 -48 -6 -137
c-5 -124 -9 -148 -45 -257 -22 -66 -36 -124 -32 -128 11 -13 33 1 60 38 14 19
30 33 35 31 16 -4 83 -96 105 -144 54 -114 30 -332 -55 -502 -54 -107 -208
-267 -318 -332 -71 -41 -339 -168 -407 -193 -194 -70 -280 -92 -390 -101 -51
-5 -75 -10 -61 -14 13 -3 50 -3 83 0 51 5 58 4 58 -12 0 -10 -3 -18 -7 -18 -5
0 -26 -29 -47 -63 -41 -66 -87 -103 -186 -152 -51 -26 -60 -27 -155 -22 -66 3
-130 14 -189 31 -84 25 -95 32 -217 134 -117 98 -129 110 -129 140 0 32 1 33
33 27 17 -3 -17 14 -78 39 -249 100 -307 125 -324 140 -22 20 -134 242 -129
256 2 6 24 -5 48 -24 44 -34 235 -137 281 -151 13 -4 48 -19 77 -32 52 -23 82
-25 82 -4 0 6 -26 27 -57 47 -188 120 -312 250 -391 409 -58 118 -152 400
-196 590 -24 106 -54 321 -45 329 15 14 304 166 315 166 17 0 40 35 50 75 4
17 10 35 14 40 3 6 12 30 19 54 17 59 60 151 70 151 4 0 26 -13 49 -30 31 -22
43 -38 48 -67 4 -21 8 -47 10 -57 7 -38 28 -49 70 -37 58 16 95 12 130 -12 97
-68 148 -98 161 -93 21 8 11 19 -66 70 -80 52 -86 59 -67 75 8 7 17 42 21 84
17 190 58 434 75 451 7 7 10 0 10 -18 0 -15 4 -46 10 -69 5 -23 16 -80 25
-127 9 -47 24 -103 34 -125 70 -156 70 -155 98 -155 16 0 46 5 67 11 66 18
334 37 473 33 l133 -4 7 28 c10 35 10 370 0 442 -7 49 -6 53 6 35 8 -11 34
-76 57 -145z m-1259 -215 c-1 -49 -4 -91 -6 -93 -5 -6 -75 38 -75 46 0 17 66
141 74 139 5 -2 8 -43 7 -92z m77 -185 c36 -22 42 -40 12 -40 -11 0 -23 0 -27
-1 -5 0 -14 13 -21 30 -14 36 -9 38 36 11z m1652 -1835 c0 -3 -23 -52 -51
-108 -52 -104 -77 -142 -137 -209 l-34 -38 -44 36 c-24 20 -44 44 -44 54 0 11
-16 26 -39 38 -49 26 -81 53 -81 68 0 7 17 15 37 19 49 9 277 92 333 121 46
24 60 28 60 19z m-1765 -86 c69 -22 127 -45 130 -49 3 -5 -21 -20 -52 -35 -32
-14 -65 -32 -73 -40 -15 -13 -19 -12 -37 8 -38 42 -114 157 -103 157 6 0 67
-18 135 -41z m1319 -124 c20 -19 49 -41 66 -50 16 -8 30 -21 30 -28 -1 -21
-74 -114 -115 -147 -21 -17 -69 -45 -105 -62 -124 -58 -326 -122 -336 -107 -3
5 2 12 10 15 9 3 16 10 16 15 0 15 -29 10 -48 -9 -48 -48 -91 -73 -109 -64
-10 5 -23 7 -29 5 -7 -2 -11 4 -10 14 1 13 -7 19 -28 21 -28 4 -28 3 -11 -15
18 -17 18 -18 1 -21 -10 -2 -30 1 -44 6 -15 6 -85 25 -157 42 -77 19 -168 50
-221 75 -93 43 -198 114 -208 141 -7 17 14 7 131 -62 41 -24 83 -44 94 -44 30
0 22 26 -15 49 -33 21 -125 93 -179 140 -15 14 -27 30 -27 37 0 17 86 68 103
61 6 -2 95 -75 196 -161 136 -115 191 -156 210 -156 l26 0 -25 21 -25 20 35
-5 c19 -3 51 -9 70 -12 19 -4 73 -8 120 -8 74 -1 93 3 144 27 40 20 61 25 66
18 14 -23 40 3 108 107 38 59 74 117 80 128 8 15 27 25 59 32 78 16 89 14 127
-23z m-1534 -2 c0 -5 29 -26 65 -48 36 -22 65 -45 65 -52 0 -6 -13 -26 -30
-44 -16 -18 -27 -35 -25 -39 7 -12 -30 -8 -37 4 -4 6 -15 36 -24 66 -8 30 -20
63 -25 72 -12 23 -12 48 1 48 6 0 10 -3 10 -7z m1876 -200 c-9 -26 -16 -55
-16 -65 0 -30 -18 -21 -46 23 -28 45 -28 44 31 88 48 36 55 25 31 -46z"/>
<path d="M3689 2543 c-76 -15 -125 -37 -162 -72 -41 -37 -59 -77 -52 -111 l6
-29 59 59 c50 49 68 60 112 69 119 24 269 7 343 -39 92 -57 194 -223 231 -380
l18 -72 14 38 c8 24 12 68 10 114 -3 66 -9 87 -49 170 -75 153 -179 237 -323
260 -79 12 -119 11 -207 -7z"/>
<path d="M2295 2388 c-145 -39 -270 -121 -348 -228 -49 -67 -78 -166 -84 -280
-5 -96 -3 -110 19 -163 l25 -59 6 93 c18 252 122 428 302 514 121 57 176 68
295 55 56 -5 111 -15 122 -21 20 -11 20 -10 -3 19 -33 43 -128 77 -239 87 -14
1 -56 -6 -95 -17z"/>
<path d="M3702 2384 c-9 -4 -4 -16 18 -40 50 -58 31 -117 -41 -129 -42 -8 -69
12 -69 50 0 43 -20 37 -41 -12 -11 -26 -25 -58 -31 -70 -6 -13 -11 -62 -11
-110 0 -108 21 -160 96 -236 84 -84 172 -117 270 -103 86 13 170 118 183 228
5 43 1 72 -16 129 -48 154 -101 234 -185 273 -38 18 -148 31 -173 20z m133
-26 c14 -6 25 -14 25 -17 0 -4 -21 -28 -47 -54 l-48 -46 -1 45 c-1 25 -6 50
-12 56 -7 7 -12 16 -12 20 0 12 66 10 95 -4z m105 -68 c22 -23 40 -47 40 -55
0 -8 4 -15 9 -15 8 0 37 -84 61 -178 18 -69 1 -143 -49 -208 -44 -59 -90 -84
-154 -84 -97 0 -228 91 -274 192 -26 55 -32 157 -13 233 16 62 16 62 39 41 12
-11 38 -19 63 -19 24 -1 46 -6 50 -11 3 -5 39 25 79 67 40 43 81 77 91 77 11
0 37 -18 58 -40z"/>
<path d="M3810 2215 c-7 -9 -10 -18 -7 -21 3 -3 10 4 17 15 13 25 8 27 -10 6z"/>
<path d="M3909 2183 l-34 -38 38 34 c20 19 37 36 37 38 0 8 -8 0 -41 -34z"/>
<path d="M3749 2153 c-19 -22 -24 -29 -9 -18 40 32 53 46 48 50 -2 3 -20 -12
-39 -32z"/>
<path d="M3760 2093 l-55 -58 58 55 c53 50 62 60 54 60 -1 0 -27 -26 -57 -57z"/>
<path d="M3814 2088 l-19 -23 23 19 c21 18 27 26 19 26 -2 0 -12 -10 -23 -22z"/>
<path d="M3764 2039 c-19 -22 -19 -22 4 -8 12 8 22 17 22 21 0 12 -6 9 -26
-13z"/>
<path d="M3809 2013 l-24 -28 28 24 c25 23 32 31 24 31 -2 0 -14 -12 -28 -27z"/>
<path d="M2333 2225 c-24 -14 -43 -31 -43 -36 0 -6 14 -15 30 -20 26 -10 30
-16 30 -48 0 -42 -35 -104 -62 -109 -8 -2 -29 9 -47 23 -22 19 -32 23 -35 13
-13 -39 -24 -142 -23 -209 2 -65 6 -82 32 -124 37 -59 101 -110 157 -126 23
-6 81 -9 128 -7 81 3 88 5 145 44 36 24 76 63 98 96 36 51 38 60 38 124 0 169
-72 315 -184 375 -32 17 -63 23 -132 26 -83 4 -93 2 -132 -22z m177 -2 c8 -3
26 -6 39 -7 14 -1 26 -7 29 -14 2 -7 11 -12 21 -12 22 0 75 -55 67 -69 -4 -6
-1 -9 6 -6 30 12 88 -157 88 -253 0 -80 -18 -123 -76 -178 -70 -66 -116 -84
-210 -84 -65 1 -88 5 -134 28 -63 31 -113 91 -131 155 -12 45 -4 205 11 220 4
5 17 4 28 -2 33 -18 49 -13 91 26 31 28 39 42 35 59 -4 16 5 34 32 66 31 35
32 38 7 14 -31 -28 -31 -28 -42 -7 -7 12 -18 21 -26 21 -39 0 -1 35 53 49 25
7 86 4 112 -6z"/>
<path d="M2467 2163 c-4 -3 -7 -11 -7 -17 0 -6 5 -5 12 2 6 6 9 14 7 17 -3 3
-9 2 -12 -2z"/>
<path d="M2595 2130 c-3 -5 -1 -10 4 -10 6 0 11 5 11 10 0 6 -2 10 -4 10 -3 0
-8 -4 -11 -10z"/>
<path d="M2410 2105 c-13 -14 -22 -27 -19 -29 2 -2 14 10 27 25 29 36 24 38
-8 4z"/>
<path d="M2479 2093 c-23 -28 -36 -51 -16 -28 10 11 26 26 35 33 9 6 11 12 5
12 -5 0 -16 -8 -24 -17z"/>
<path d="M2605 2070 c-16 -16 -26 -30 -22 -30 3 0 21 14 39 30 18 17 28 30 22
30 -6 0 -23 -13 -39 -30z"/>
<path d="M2499 2033 c-13 -16 -12 -17 4 -4 9 7 17 15 17 17 0 8 -8 3 -21 -13z"/>
<path d="M2649 2024 l-24 -27 28 18 c15 9 27 21 27 26 0 14 -5 11 -31 -17z"/>
<path d="M2549 2013 c-13 -17 -13 -17 6 -3 11 8 22 16 24 17 2 2 0 3 -6 3 -6
0 -17 -8 -24 -17z"/>
<path d="M2373 1987 c-35 -39 -38 -53 -4 -19 19 18 31 35 29 37 -3 3 -14 -5
-25 -18z"/>
<path d="M2413 1955 c-32 -30 -55 -55 -51 -55 4 0 33 25 65 55 32 30 55 55 51
55 -3 0 -32 -25 -65 -55z"/>
<path d="M2559 1933 l-24 -28 28 24 c25 23 32 31 24 31 -2 0 -14 -12 -28 -27z"/>
<path d="M2445 1908 l-40 -43 43 40 c39 36 47 45 39 45 -2 0 -21 -19 -42 -42z"/>
<path d="M2505 1889 c-11 -16 -1 -19 13 -3 7 8 8 14 3 14 -5 0 -13 -5 -16 -11z"/>
<path d="M2454 1839 c-19 -22 -19 -22 4 -8 12 8 22 17 22 21 0 12 -6 9 -26
-13z"/>
<path d="M4048 1628 c-58 -106 -108 -212 -108 -231 0 -18 14 3 55 78 21 39 42
77 46 85 23 41 70 153 67 161 -2 5 -29 -37 -60 -93z"/>
<path d="M4111 1576 c-74 -146 -95 -225 -29 -105 32 57 118 236 118 245 0 2
-4 4 -8 4 -4 0 -41 -65 -81 -144z"/>
<path d="M4233 1627 c-42 -74 -93 -188 -93 -207 0 -23 17 1 52 72 92 184 117
267 41 135z"/>
<path d="M3927 1615 c-40 -69 -71 -145 -59 -145 13 0 50 68 93 167 27 64 9 52
-34 -22z"/>
<path d="M4344 1639 c-9 -18 -24 -47 -34 -63 -27 -49 -83 -196 -77 -202 7 -8
65 106 106 210 32 81 36 113 5 55z"/>
<path d="M2224 1407 c-59 -88 -118 -188 -133 -221 -9 -21 22 9 44 42 14 21 37
55 52 77 49 74 122 205 114 205 -5 0 -40 -47 -77 -103z"/>
<path d="M2405 1478 c-10 -18 -34 -52 -51 -75 -37 -49 -137 -223 -131 -229 11
-11 211 308 205 327 -2 6 -12 -5 -23 -23z"/>
<path d="M2506 1483 c-9 -18 -27 -49 -40 -68 -31 -45 -109 -205 -103 -211 12
-12 171 279 164 301 -2 5 -11 -5 -21 -22z"/>
<path d="M2589 1437 c-58 -89 -81 -135 -77 -149 5 -14 69 84 101 156 15 32 26
60 25 62 -2 1 -24 -30 -49 -69z"/>
<path d="M2149 1437 c-61 -83 -123 -186 -117 -193 6 -6 97 116 129 172 10 19
27 46 35 60 34 51 -3 20 -47 -39z"/>
<path d="M3753 1455 c-49 -26 -192 -50 -250 -41 -104 18 -172 18 -224 2 -89
-26 -224 -55 -291 -62 -55 -5 -96 -1 -198 22 -23 5 -28 -1 -54 -56 -43 -92
-56 -145 -56 -224 1 -248 144 -432 369 -477 70 -13 218 0 314 28 169 49 313
165 380 303 69 142 100 330 72 434 -8 32 -13 67 -10 77 8 24 0 23 -52 -6z m-1
-41 c4 -3 0 -25 -9 -49 l-15 -44 -34 31 c-19 17 -34 34 -34 38 0 3 17 11 38
17 50 14 48 14 54 7z m-332 -24 c0 -10 -87 -100 -97 -100 -14 0 -112 66 -109
75 7 24 206 49 206 25z m190 -10 c0 -14 -42 -60 -53 -60 -11 0 -77 53 -77 61
0 2 29 4 65 5 36 0 65 -3 65 -6z m-479 -57 c-11 -16 -28 -38 -38 -50 l-18 -23
-47 31 c-27 17 -48 35 -48 38 0 7 96 26 148 29 l23 2 -20 -27z m-243 7 c19 0
32 -5 32 -13 0 -13 -56 -67 -69 -67 -8 0 -41 65 -41 82 0 6 9 8 23 4 12 -3 37
-6 55 -6z m-90 -57 c15 -32 35 -59 44 -61 9 -2 37 15 61 37 24 23 47 41 51 41
8 0 86 -51 104 -67 14 -13 42 -7 42 9 0 5 6 15 13 22 6 7 24 27 40 45 32 37
36 37 70 11 14 -11 30 -20 36 -20 6 0 11 -4 11 -9 0 -5 13 -14 29 -21 25 -10
33 -9 55 7 14 10 26 21 26 26 1 21 88 -7 183 -59 15 -8 27 -12 27 -7 0 4 4 3
8 -2 4 -6 42 -27 86 -48 l78 -38 -7 -37 c-9 -47 -51 -148 -78 -187 -35 -50
-100 -119 -127 -133 -13 -7 -27 -17 -30 -21 -10 -16 -121 -65 -170 -76 -8 -1
-35 -8 -59 -15 -24 -6 -89 -12 -145 -13 -140 -3 -205 22 -297 114 -91 90 -121
164 -127 309 -3 86 0 117 17 169 11 36 18 68 15 73 -3 4 0 8 6 8 6 0 23 -26
38 -57z"/>
<path d="M2578 573 c7 -3 16 -2 19 1 4 3 -2 6 -13 5 -11 0 -14 -3 -6 -6z"/>
<path d="M3159 545 c-3 -9 -6 -20 -13 -47 -5 -15 -4 -45 2 -65 l10 -38 1 40
c1 22 8 51 16 65 8 14 14 28 15 31 0 8 -29 21 -31 14z"/>
<path d="M4251 3014 c0 -11 3 -14 6 -6 3 7 2 16 -1 19 -3 4 -6 -2 -5 -13z"/>
<path d="M1947 2859 c7 -7 15 -10 18 -7 3 3 -2 9 -12 12 -14 6 -15 5 -6 -5z"/>
<path d="M1096 2804 c-4 -14 -5 -28 -3 -31 3 -2 8 8 11 23 4 14 5 28 3 31 -3
2 -8 -8 -11 -23z"/>
<path d="M1081 2744 c0 -11 3 -14 6 -6 3 7 2 16 -1 19 -3 4 -6 -2 -5 -13z"/>
<path d="M1061 2684 c-17 -66 -39 -241 -52 -414 -18 -248 -5 -504 40 -770 5
-30 19 -109 29 -175 11 -66 29 -167 41 -225 34 -179 61 -443 61 -605 0 -103
-4 -137 -31 -240 -48 -180 -49 -215 -7 -167 26 28 95 173 112 232 37 129 58
396 37 453 -11 29 0 55 16 35 6 -7 16 -31 23 -53 31 -96 203 -392 305 -525 66
-86 149 -173 179 -189 14 -8 26 -20 26 -28 0 -9 14 -13 43 -13 39 1 41 2 22
15 -151 111 -235 212 -400 475 -39 62 -138 261 -168 340 -82 210 -128 385
-147 565 -7 61 -16 132 -21 158 -5 26 -10 76 -11 110 l-2 62 -6 -70 c-12 -147
4 -333 45 -495 58 -230 59 -242 60 -495 0 -209 -2 -248 -19 -300 -28 -86 -40
-93 -30 -15 13 97 8 307 -10 465 -15 123 -26 196 -67 425 -6 30 -12 69 -15 85
-76 455 -77 465 -78 815 0 283 2 328 22 444 22 126 23 177 3 100z"/>
<path d="M3541 103 c-15 -77 -14 -103 4 -103 12 0 15 16 15 80 0 44 -2 80 -4
80 -2 0 -8 -26 -15 -57z"/>
<path d="M2334 128 c3 -13 6 -47 6 -75 0 -47 2 -53 21 -53 22 0 22 -4 -6 93
-10 31 -20 57 -23 57 -2 0 -2 -10 2 -22z"/>
<path d="M4500 86 c0 -5 10 -26 22 -47 14 -26 29 -39 42 -39 20 1 20 2 -4 23
-14 12 -33 33 -43 47 -9 13 -17 21 -17 16z"/>
</g>
</svg>
